<?xml version="1.0" encoding="UTF-8" standalone="no"?>
<svg
   xmlns:dc="http://purl.org/dc/elements/1.1/"
   xmlns:cc="http://creativecommons.org/ns#"
   xmlns:rdf="http://www.w3.org/1999/02/22-rdf-syntax-ns#"
   xmlns:svg="http://www.w3.org/2000/svg"
   xmlns="http://www.w3.org/2000/svg"
   viewBox="0 0 4000 4000"
   height="4000"
   width="4000"
   xml:space="preserve"
   id="svg2"
   version="1.1"><metadata
     id="metadata8"><rdf:RDF><cc:Work
         rdf:about=""><dc:format>image/svg+xml</dc:format><dc:type
           rdf:resource="http://purl.org/dc/dcmitype/StillImage" /></cc:Work></rdf:RDF></metadata><defs
     id="defs6"><clipPath
       id="clipPath214"
       clipPathUnits="userSpaceOnUse"><path
         id="path212"
         d="m 10122.7,14825.2 c 61.3,-129.4 215.8,-184.6 345.2,-123.3 129.4,61.3 184.5,215.9 123.3,345.2 -61.3,129.4 -215.9,184.6 -345.2,123.3 -129.4,-61.3 -184.6,-215.9 -123.3,-345.2" /></clipPath><clipPath
       id="clipPath246"
       clipPathUnits="userSpaceOnUse"><path
         id="path244"
         d="m 9537.12,14547.7 c 61.29,-129.3 215.84,-184.5 345.21,-123.2 129.37,61.3 184.57,215.8 123.27,345.2 -61.31,129.4 -215.86,184.5 -345.22,123.2 -129.37,-61.2 -184.55,-215.8 -123.26,-345.2" /></clipPath></defs><g
     transform="matrix(1.3333333,0,0,-1.3333333,0,4000)"
     id="g10"><g
       transform="scale(0.1)"
       id="g12"><g
         transform="scale(1.84049)"
         id="g14"><path
           id="path16"
           style="fill:#c8e9f7;fill-opacity:1;fill-rule:nonzero;stroke:none"
           d="M 16300,0 H 7506.69 l 1883.74,2604.47 643.97,-465.42 98.4,3123.84 L 7217.04,4175.19 7968.31,3632.24 5347.03,0 H 2982.9 l 5625.13,7690.07 643.96,-465.42 98.4,3123.85 L 6434.64,9260.79 7185.91,8717.84 853.033,0 H 0 v 16300 h 16300 -2053 v 0 0 h -935.2 v 0 h -4037.48 -64.76 v 0 h -19.19 -851.67 c -25.97,-167.9 -38.96,-335.5 -39.01,-510.2 0.05,174.7 13.04,342.3 39.01,510.2 h -562.41 c -90.35,-1482.5 506.28,-3220.5 1747.69,-4749.5 446.73,-550.3 941.52,-1025.3 1460.42,-1417.9 1135.5,-868.55 2385.5,-1339.73 3505,-1339.73 667.1,0 1287.9,167.3 1810.6,517.53 V 0 M 4146.58,10558.3 1230.84,9470.63 1982.13,8927.62 0,5758.95 V 2788.82 l 3404.22,5111.03 643.95,-465.36 98.41,3123.81 m 1272.5,-1978.14 c -50.48,0 -112.65,-9.56 -193.13,-23.53 -235.41,-40.97 -333.45,-301.77 -356.93,-415.92 -23.48,-114.1 186.84,-432.6 186.84,-432.6 0,0 167.14,-244.01 226.66,-292.26 59.52,-48.3 348.75,-105.24 348.75,-105.24 0,0 77.26,16.24 113.5,60.9 36.19,44.66 163.22,262.22 147.74,358.66 -15.55,96.44 -105.41,356.7 -105.41,356.7 0,0 -7.83,18.14 -20.1,46.34 -1.69,12.99 -5.22,25.97 -10.71,38.52 v 0 c -0.54,1.31 -1.14,2.61 -1.74,3.86 -5.32,11.19 -11.9,21.3 -19.45,30.37 -37.6,85.2 -85.46,191.64 -107.25,231.95 -57.76,106.93 -111.6,142.25 -208.77,142.25 M 12685.4,11510 c -651.7,53 -1428.5,506 -2035.7,1254 607.2,-747.9 1384.1,-1201 2035.7,-1254 v 0 m -603.4,1028.5 c -356.6,0 -773.9,216.8 -1085.9,601.1 -458.3,564.5 -516.1,1276.7 -129.2,1590.8 123.4,100.2 268.9,147.8 424.7,147.8 332.5,0 712,-216.8 1024,-601.2 458.3,-564.4 597.6,-1276.6 210.7,-1590.7 -123.4,-100.2 -277.2,-147.8 -444.3,-147.8 m 1806.1,661.9 c -102,505.7 -364.5,1058.8 -774.5,1563.8 -2.4,3 -4.9,6.1 -7.4,9.1 2.5,-3 5,-6.1 7.4,-9.1 410,-505 672.5,-1058.1 774.5,-1563.8 v 0 m -782.1,1573.1 c 0,0.1 -0.1,0.2 -0.1,0.2 0,0 0.1,-0.1 0.1,-0.2 m -2.5,3.2 c -645.6,789.2 -1480.1,1246.6 -2152,1246.8 672,-0.1 1506.3,-457.5 2152,-1246.8 m -3276.55,10.5 c 0.05,420.3 133.66,777.7 410.45,1002.3 1.1,1 2.3,1.9 3.5,2.9 -1.2,-1 -2.4,-1.9 -3.5,-2.9 -276.79,-224.6 -410.4,-582 -410.45,-1002.3 m 1124.25,1236.3 v 0 0 0" /></g><g
         transform="scale(1.14413)"
         id="g18"><path
           id="path20"
           style="fill:#9ed8f2;fill-opacity:1;fill-rule:nonzero;stroke:none"
           d="M 12075.6,0 H 8601.44 L 12818.1,5842.96 11609.6,6716.37 16300,8466.09 16141.7,3440.96 15105.8,4189.65 12075.6,0" /></g><g
         transform="scale(1.19218)"
         id="g22"><path
           id="path24"
           style="fill:#9ed8f2;fill-opacity:1;fill-rule:nonzero;stroke:none"
           d="m 0,4305.4 v 4585.3 l 3060.02,4891.8 -1159.84,838.3 4501.34,1679.2 -151.93,-4822.6 -994.14,718.4 L 0,4305.4" /></g><g
         transform="scale(1.16848)"
         id="g26"><path
           id="path28"
           style="fill:#9ed8f2;fill-opacity:1;fill-rule:nonzero;stroke:none"
           d="M 4698.39,0 H 1343.62 l 9974.98,13731.5 -1183.3,855.3 4592.6,1713.2 -155,-4920.4 -1014.3,733.1 L 4698.39,0" /></g><path
         id="path30"
         style="fill:#ffffff;fill-opacity:1;fill-rule:nonzero;stroke:none"
         d="M 6687.21,9510 H 6450 v 237.2 c 0,29.7 -24.26,53.9 -53.91,53.9 -29.65,0 -53.91,-24.2 -53.91,-53.9 V 9510 h -237.21 c -29.65,0 -53.91,-24.3 -53.91,-53.9 0,-29.7 24.26,-53.9 53.91,-53.9 h 237.21 V 9165 c 0,-29.7 24.26,-53.9 53.91,-53.9 29.65,0 53.91,24.2 53.91,53.9 v 237.2 h 237.21 c 29.65,0 53.91,24.2 53.91,53.9 0,29.6 -24.26,53.9 -53.91,53.9" /><g
         transform="scale(1.75467)"
         id="g32"><path
           id="path34"
           style="fill:#ffffff;fill-opacity:1;fill-rule:nonzero;stroke:none"
           d="m 1864.87,16134.1 h -135.18 v 135.2 c 0,16.9 -13.83,30.7 -30.73,30.7 -16.9,0 -30.72,-13.8 -30.72,-30.7 v -135.2 h -135.19 c -16.9,0 -30.72,-13.8 -30.72,-30.7 0,-16.9 13.82,-30.8 30.72,-30.8 h 135.19 v -135.1 c 0,-16.9 13.82,-30.8 30.72,-30.8 16.9,0 30.73,13.9 30.73,30.8 v 135.1 h 135.18 c 16.9,0 30.72,13.9 30.72,30.8 0,16.9 -13.82,30.7 -30.72,30.7" /></g><g
         transform="scale(1.53316)"
         id="g36"><path
           id="path38"
           style="fill:#ffffff;fill-opacity:1;fill-rule:nonzero;stroke:none"
           d="m 10794,16157.6 h -116.1 v 116 c 0,14.5 -11.9,26.4 -26.4,26.4 -14.5,0 -26.4,-11.9 -26.4,-26.4 v -116 h -116 c -14.5,0 -26.3,-11.9 -26.3,-26.4 0,-14.5 11.8,-26.4 26.3,-26.4 h 116 v -116 c 0,-14.5 11.9,-26.4 26.4,-26.4 14.5,0 26.4,11.9 26.4,26.4 v 116 h 116.1 c 14.4,0 26.3,11.9 26.3,26.4 0,14.5 -11.9,26.4 -26.3,26.4" /></g><g
         transform="scale(1.67173)"
         id="g40"><path
           id="path42"
           style="fill:#ffffff;fill-opacity:1;fill-rule:nonzero;stroke:none"
           d="m 6368.67,16169.4 h -106.41 v 106.4 c 0,13.3 -10.89,24.2 -24.23,24.2 -13.28,0 -24.17,-10.9 -24.17,-24.2 v -106.4 h -106.41 c -13.28,0 -24.17,-10.9 -24.17,-24.2 0,-13.3 10.89,-24.2 24.17,-24.2 h 106.41 v -106.4 c 0,-13.3 10.89,-24.2 24.17,-24.2 13.34,0 24.23,10.9 24.23,24.2 v 106.4 h 106.41 c 13.28,0 24.17,10.9 24.17,24.2 0,13.3 -10.89,24.2 -24.17,24.2" /></g><g
         transform="scale(1.41046)"
         id="g44"><path
           id="path46"
           style="fill:#ffffff;fill-opacity:1;fill-rule:nonzero;stroke:none"
           d="m 6400.7,16145.2 h -126.13 v 126.1 c 0,15.8 -12.9,28.7 -28.67,28.7 -15.76,0 -28.66,-12.9 -28.66,-28.7 v -126.1 H 6091.1 c -15.76,0 -28.66,-12.9 -28.66,-28.7 0,-15.7 12.9,-28.6 28.66,-28.6 h 126.14 v -126.2 c 0,-15.7 12.9,-28.6 28.66,-28.6 15.77,0 28.67,12.9 28.67,28.6 v 126.2 h 126.13 c 15.77,0 28.67,12.9 28.67,28.6 0,15.8 -12.9,28.7 -28.67,28.7" /></g><g
         transform="scale(1.62137)"
         id="g48"><path
           id="path50"
           style="fill:#ffffff;fill-opacity:1;fill-rule:nonzero;stroke:none"
           d="m 16275.1,1918.13 h -109.7 v 109.73 c 0,13.69 -11.3,24.91 -25,24.91 -13.7,0 -24.9,-11.22 -24.9,-24.91 v -109.73 h -109.8 c -13.7,0 -24.9,-11.22 -24.9,-24.91 0,-13.76 11.2,-24.98 24.9,-24.98 h 109.8 v -109.72 c 0,-13.7 11.2,-24.92 24.9,-24.92 13.7,0 25,11.22 25,24.92 v 109.72 h 109.7 c 13.7,0 24.9,11.22 24.9,24.98 0,13.69 -11.2,24.91 -24.9,24.91" /></g><g
         transform="scale(1.59688)"
         id="g52"><path
           id="path54"
           style="fill:#ffffff;fill-opacity:1;fill-rule:nonzero;stroke:none"
           d="m 16274.7,7497.17 h -111.4 v 111.4 c 0,13.9 -11.4,25.3 -25.4,25.3 -13.9,0 -25.3,-11.4 -25.3,-25.3 v -111.4 h -111.4 c -13.9,0 -25.3,-11.4 -25.3,-25.3 0,-13.97 11.4,-25.37 25.3,-25.37 h 111.4 v -111.4 c 0,-13.9 11.4,-25.3 25.3,-25.3 14,0 25.4,11.4 25.4,25.3 v 111.4 h 111.4 c 13.9,0 25.3,11.4 25.3,25.37 0,13.9 -11.4,25.3 -25.3,25.3" /></g><g
         transform="scale(1.14529)"
         id="g56"><path
           id="path58"
           style="fill:#ffffff;fill-opacity:1;fill-rule:nonzero;stroke:none"
           d="m 16264.7,15203.2 h -155.3 v 155.3 c 0,19.4 -15.9,35.3 -35.3,35.3 -19.5,0 -35.3,-15.9 -35.3,-35.3 v -155.3 h -155.4 c -19.4,0 -35.2,-15.9 -35.2,-35.3 0,-19.5 15.8,-35.4 35.2,-35.4 h 155.4 v -155.3 c 0,-19.4 15.8,-35.3 35.3,-35.3 19.4,0 35.3,15.9 35.3,35.3 v 155.3 h 155.3 c 19.4,0 35.3,15.9 35.3,35.4 0,19.4 -15.9,35.3 -35.3,35.3" /></g><g
         transform="scale(1.38579)"
         id="g60"><path
           id="path62"
           style="fill:#ffffff;fill-opacity:1;fill-rule:nonzero;stroke:none"
           d="m 16270.8,4899.75 h -128.3 v 128.38 c 0,16.01 -13.2,29.15 -29.2,29.15 -16.1,0 -29.2,-13.14 -29.2,-29.15 v -128.38 h -128.4 c -16,0 -29.1,-13.13 -29.1,-29.15 0,-16.1 13.1,-29.23 29.1,-29.23 h 128.4 V 4713 c 0,-16.02 13.1,-29.16 29.2,-29.16 16,0 29.2,13.14 29.2,29.16 v 128.37 h 128.3 c 16.1,0 29.2,13.13 29.2,29.23 0,16.02 -13.1,29.15 -29.2,29.15" /></g><path
         id="path64"
         style="fill:#ffffff;fill-opacity:1;fill-rule:nonzero;stroke:none"
         d="m 16072.2,12966.8 h -177.9 v 177.9 c 0,22.2 -18.2,40.4 -40.4,40.4 -22.2,0 -40.4,-18.2 -40.4,-40.4 v -177.9 h -178 c -22.2,0 -40.4,-18.2 -40.4,-40.4 0,-22.3 18.2,-40.5 40.4,-40.5 h 178 V 12708 c 0,-22.2 18.2,-40.4 40.4,-40.4 22.2,0 40.4,18.2 40.4,40.4 v 177.9 h 177.9 c 22.3,0 40.5,18.2 40.5,40.5 0,22.2 -18.2,40.4 -40.5,40.4" /><g
         transform="scale(1.29259)"
         id="g66"><path
           id="path68"
           style="fill:#ffffff;fill-opacity:1;fill-rule:nonzero;stroke:none"
           d="m 16268.7,9262.11 h -137.6 v 137.63 c 0,17.17 -14.1,31.26 -31.3,31.26 -17.2,0 -31.3,-14.09 -31.3,-31.26 v -137.63 h -137.6 c -17.2,0 -31.3,-14.08 -31.3,-31.25 0,-17.26 14.1,-31.34 31.3,-31.34 h 137.6 v -137.63 c 0,-17.17 14.1,-31.25 31.3,-31.25 17.2,0 31.3,14.08 31.3,31.25 v 137.63 h 137.6 c 17.2,0 31.3,14.08 31.3,31.34 0,17.17 -14.1,31.25 -31.3,31.25" /></g><g
         transform="scale(1.25941)"
         id="g70"><path
           id="path72"
           style="fill:#ffffff;fill-opacity:1;fill-rule:nonzero;stroke:none"
           d="m 3054.35,16126.6 h -141.26 v 141.3 c 0,17.6 -14.44,32.1 -32.1,32.1 -17.66,0 -32.1,-14.5 -32.1,-32.1 v -141.3 h -141.27 c -17.66,0 -32.1,-14.4 -32.1,-32.1 0,-17.6 14.44,-32.1 32.1,-32.1 h 141.27 v -141.2 c 0,-17.7 14.44,-32.1 32.1,-32.1 17.66,0 32.1,14.4 32.1,32.1 v 141.2 h 141.26 c 17.67,0 32.11,14.5 32.11,32.1 0,17.7 -14.44,32.1 -32.11,32.1" /></g><g
         transform="scale(1.84049)"
         id="g74"><path
           id="path76"
           style="fill:#ffffff;fill-opacity:1;fill-rule:nonzero;stroke:none"
           d="m 10237.4,15789.5 c 680.3,552.4 1968.1,93.3 2876.2,-1025.3 908.1,-1118.6 1092.7,-2473.2 412.4,-3025.5 -680.4,-552.4 -1968.2,-93.3 -2876.3,1025.3 -908.11,1118.6 -1092.74,2473.2 -412.3,3025.5 M 9209.56,16300 c -101.88,-338.9 -126.44,-879.9 -73.14,-1304 53.41,-424 181.97,-863.7 382.24,-1306.8 207.23,-458.4 482.74,-900.9 818.94,-1314.9 336.1,-414.1 712.5,-774.7 1118.6,-1071.7 392.5,-287 796.3,-503.2 1200.4,-642.6 404,-139.3 787.6,-194.7 1140.2,-164.7 364.9,31.1 680.5,153 938.2,362.2 257.8,209.3 441.9,493.2 547.3,843.8 101.9,338.9 126.5,725.7 73.1,1149.8 -53.3,424 -181.9,863.7 -382.2,1306.8 -207.2,458.4 -482.7,900.9 -818.9,1315 -258.6,318.5 -541.1,576.4 -842.5,827.1 h -4037.48 -64.76" /></g><g
         transform="scale(1.84049)"
         id="g78"><path
           id="path80"
           style="fill:#ffffff;fill-opacity:1;fill-rule:nonzero;stroke:none"
           d="m 14247,16300 c 137.7,-145.7 271.1,-268.9 399.7,-427.4 422.6,-520.5 769.2,-1077.3 1030.3,-1654.7 252,-557.6 413.7,-1110.5 480.8,-1643.6 67.1,-533 36,-1019.5 -92.1,-1445.9 -132.8,-441.6 -364.4,-798.9 -688.4,-1062 -324,-262.98 -721.3,-416.26 -1180.8,-455.43 -443.6,-37.82 -926.1,31.84 -1434,207.01 -507.9,175.17 -1015.8,447.12 -1509.6,808.22 -511.5,374.1 -985.2,827.8 -1407.75,1348.3 -422.61,520.5 -769.2,1077.3 -1030.22,1654.7 -251.94,557.6 -413.75,1110.5 -480.79,1643.6 -47.44,376.9 -45.75,701.6 4.56,1027.2 H 7776.29 C 7685.94,14817.5 8282.57,13079.5 9523.98,11550.5 11531.5,9077.58 14507.2,8126.96 16300,9328.22 V 16300 h -2053" /></g><g
         transform="scale(1.84049)"
         id="g82"><path
           id="path84"
           style="fill:#1b75bb;fill-opacity:1;fill-rule:nonzero;stroke:none"
           d="M 9190.37,16300 H 8338.7 c -50.31,-325.6 -52,-650.3 -4.56,-1027.2 67.04,-533.1 228.85,-1086 480.79,-1643.6 261.02,-577.4 607.61,-1134.2 1030.22,-1654.7 422.55,-520.5 896.25,-974.2 1407.75,-1348.3 493.8,-361.1 1001.7,-633.05 1509.6,-808.22 507.9,-175.17 990.4,-244.83 1434,-207.01 459.5,39.17 856.8,192.45 1180.8,455.43 324,263.1 555.6,620.4 688.4,1062 128.1,426.4 159.2,912.9 92.1,1445.9 -67.1,533.1 -228.8,1086 -480.8,1643.6 -261.1,577.4 -607.7,1134.2 -1030.3,1654.7 -128.6,158.5 -262,281.7 -399.7,427.4 h -935.2 c 301.4,-250.7 583.9,-508.6 842.5,-827.1 336.2,-414.1 611.7,-856.6 818.9,-1315 200.3,-443.1 328.9,-882.8 382.2,-1306.8 53.4,-424.1 28.8,-810.9 -73.1,-1149.8 -105.4,-350.6 -289.5,-634.5 -547.3,-843.8 -257.7,-209.2 -573.3,-331.1 -938.2,-362.2 -352.6,-30 -736.2,25.4 -1140.2,164.7 -404.1,139.4 -807.9,355.6 -1200.4,642.6 -406.1,297 -782.5,657.6 -1118.6,1071.7 -336.2,414 -611.71,856.5 -818.94,1314.9 -200.27,443.1 -328.83,882.8 -382.24,1306.8 -53.3,424.1 -28.74,965.1 73.14,1304 h -19.19" /></g><g
         transform="scale(1.84049)"
         id="g86"><path
           id="path88"
           style="fill:#1b75bb;fill-opacity:1;fill-rule:nonzero;stroke:none"
           d="m 10866.9,14730.4 c 386.8,314.1 990.5,111.1 1448.7,-453.4 458.3,-564.4 597.6,-1276.6 210.7,-1590.7 -386.8,-314.1 -1072,-111.1 -1530.2,453.3 -458.3,564.5 -516.1,1276.7 -129.2,1590.8 M 13526,11738.7 c 680.3,552.3 495.7,1906.9 -412.4,3025.5 -908.1,1118.6 -2195.9,1577.7 -2876.2,1025.3 -680.44,-552.3 -495.81,-1906.9 412.3,-3025.5 908.1,-1118.6 2195.9,-1577.7 2876.3,-1025.3" /></g><g
         transform="scale(1.69873)"
         id="g90"><path
           id="path92"
           style="fill:#ffffff;fill-opacity:1;fill-rule:nonzero;stroke:none"
           d="m 12245.5,15124.3 c 114.9,93.3 318.4,33 454.4,-134.6 136.1,-167.6 153.3,-379.1 38.4,-472.4 -114.8,-93.2 -318.3,-33 -454.4,134.6 -136,167.7 -153.2,379.1 -38.4,472.4 z M 13571.7,13745 c 419.2,340.3 238.8,1111.9 -257.7,1723.5 -496.5,611.6 -1121.1,831.5 -1540.2,491.2 -419.2,-340.3 -356.5,-1111.9 140,-1723.5 496.4,-611.6 1238.8,-831.5 1657.9,-491.2" /></g><g
         transform="scale(1.58592)"
         id="g94"><path
           id="path96"
           style="fill:#1b75bb;fill-opacity:1;fill-rule:nonzero;stroke:none"
           d="m 13644.4,15550 c 123.1,99.9 104.7,326.4 -41.1,505.9 -145.7,179.5 -363.6,244.1 -486.7,144.2 -123,-99.9 -104.6,-326.4 41.1,-505.9 145.8,-179.6 363.7,-244.1 486.7,-144.2" /></g><g
         transform="scale(1.84049)"
         id="g98"><path
           id="path100"
           style="fill:#e1f3fb;fill-opacity:1;fill-rule:nonzero;stroke:none"
           d="m 16300,9310.4 v 17.82 0 6971.78 -6989.6 0" /></g><g
         transform="scale(1.84049)"
         id="g102"><path
           id="path104"
           style="fill:#b1e0f4;fill-opacity:1;fill-rule:nonzero;stroke:none"
           d="m 14489.4,8792.87 c -1119.5,0 -2369.5,471.18 -3505,1339.73 1133.1,-857.25 2381.7,-1321.91 3499.2,-1321.91 670.5,-0.05 1293.7,167.3 1816.4,517.53 v -17.82 c -522.7,-350.23 -1143.5,-517.53 -1810.6,-517.53 m -531.1,808.1 v 0 c 0.1,0 0,0 0.1,0 -0.1,0 0,0 -0.1,0 m -0.2,0 c -376.3,0.06 -777.3,72.75 -1195.6,217.01 418.2,-144.26 819.3,-216.95 1195.6,-217.01 m 232.5,9.51 c 2,0.16 3.9,0.33 5.9,0.49 -2,-0.16 -3.9,-0.33 -5.9,-0.49 m -582.9,876.92 v 0 0 0 m -0.2,0 c -298,0 -615.4,57.3 -946.6,171.2 331.2,-113.9 648.7,-171.2 946.6,-171.2 m 186.4,7.7 c 1,0 1.9,0.1 2.9,0.2 364.9,31.1 680.5,153 938.2,362.2 257.8,209.3 441.9,493.2 547.3,843.8 67.1,223.1 100.7,466.9 100.6,728.4 0.1,-261.5 -33.5,-505.3 -100.6,-728.4 -105.4,-350.6 -289.5,-634.5 -547.3,-843.8 -257.7,-209.2 -573.3,-331.1 -938.2,-362.2 -1,-0.1 -1.9,-0.2 -2.9,-0.2 m -981.7,1009.6 v 0 0 0 m -0.5,0 c -41.5,0 -83.6,1.8 -126.3,5.3 v 0 c 42.7,-3.5 84.8,-5.3 126.3,-5.3 m 711.9,232 c 0.7,0.7 1.6,1.3 2.4,2 -0.8,-0.7 -1.7,-1.3 -2.4,-2" /></g><g
         transform="scale(1.80515)"
         id="g106"><path
           id="path108"
           style="fill:#e1f3fb;fill-opacity:1;fill-rule:nonzero;stroke:none"
           d="m 13874,10692.7 c 0,0 -0.1,0 -0.2,0 -303.7,0 -627.4,58.5 -965.1,174.5 -1.5,0.5 -2.9,1 -4.4,1.5 v 0 c -287.5,99.2 -574.9,236.5 -858.4,409.9 36.8,17.3 73.3,35.4 109.5,54.5 283.8,92.3 543.2,226.4 778.3,402.2 43.5,-3.6 86.5,-5.4 128.8,-5.4 0.2,0 0.4,0 0.5,0 v 0 0 0 c 276.7,0 526.3,76 725.3,236.6 0.8,0.6 1.7,1.3 2.4,2 v 0 c 282.2,229 418.4,593.4 418.5,1021.9 0,149.3 -16.5,306.5 -49.2,468.4 150.1,362.4 217.5,747.3 202.1,1154.8 -42.8,318.1 -85.5,636.2 -128.2,954.3 -73.5,261.7 -172.3,503.4 -296.5,732.1 172.5,-160.6 337.6,-331.5 494,-524.3 342.7,-422.2 623.7,-873.2 834.9,-1340.7 204.2,-451.7 335.3,-900 389.7,-1332.4 18.6,-147.7 27.9,-291.1 28,-429.6 0.1,-266.6 -34.1,-515.2 -102.5,-742.6 -107.5,-357.5 -295.2,-647 -558,-860.3 -262.8,-213.4 -584.6,-337.6 -956.6,-369.4 -1,0 -2,-0.1 -3,-0.2 -62.3,-5.2 -125.6,-7.8 -189.9,-7.8 v 0" /></g><g
         transform="scale(1.84049)"
         id="g110"><path
           id="path112"
           style="fill:#e1f3fb;fill-opacity:1;fill-rule:nonzero;stroke:none"
           d="m 14483.6,8810.69 c -1117.5,0 -2366.1,464.66 -3499.2,1321.91 -275.3,210.6 -543.8,444.5 -802.2,700.8 126,-13.6 253.8,-20.7 383.4,-21.1 37.1,-1.4 74,-2.1 110.8,-2.1 106.3,0 211,5.8 314.1,17.6 86.3,-69.5 173.7,-136.7 262.4,-201.6 493.8,-361.1 1001.7,-633.05 1509.6,-808.22 v 0 c 418.3,-144.26 819.3,-216.95 1195.6,-217.01 0.1,0 0.2,0 0.2,0 v 0 0 c 0.1,0 0,0 0.1,0 78.5,0 155.9,3.15 232.2,9.51 2,0.16 3.9,0.33 5.9,0.49 v 0 c 459.5,39.17 856.8,192.45 1180.8,455.43 324,263.1 555.6,620.4 688.4,1062 84.3,280.7 126.6,587.4 126.5,916.2 -0.1,170.8 -11.5,347.6 -34.4,529.7 -67.1,533.1 -228.8,1086 -480.8,1643.6 -261.1,577.4 -607.7,1134.2 -1030.3,1654.7 -128.6,158.5 -262,281.7 -399.7,427.4 h 2053 v -6971.78 0 c -522.7,-350.23 -1145.9,-517.58 -1816.4,-517.53" /></g><g
         transform="scale(1.84049)"
         id="g114"><path
           id="path116"
           style="fill:#1d7cc0;fill-opacity:1;fill-rule:nonzero;stroke:none"
           d="m 13958.3,9600.97 c 0,0 -0.1,0 -0.2,0 -376.3,0.06 -777.4,72.75 -1195.6,217.01 v 0 c -507.9,175.17 -1015.8,447.12 -1509.6,808.22 -88.7,64.9 -176.1,132.1 -262.4,201.6 287.1,32.6 561.9,110.7 824.2,234.2 278,-170 559.9,-304.7 841.9,-402 v 0 c 1.4,-0.5 2.8,-0.9 4.3,-1.4 331.2,-113.9 648.6,-171.2 946.6,-171.2 0,0 0.1,0 0.2,0 v 0 0 c 62.9,0 125,2.6 186.2,7.7 1,0 1.9,0.1 2.9,0.2 364.9,31.1 680.5,153 938.2,362.2 257.8,209.3 441.9,493.2 547.3,843.8 67.1,223.1 100.7,466.9 100.6,728.4 -0.1,135.8 -9.2,276.4 -27.5,421.4 -53.3,424 -181.9,863.7 -382.2,1306.8 -207.2,458.4 -482.7,900.9 -818.9,1315 -153.4,189 -315.3,356.7 -484.5,514.2 -58.2,106.9 -121.9,211 -191.4,312.9 h 768.6 c 137.7,-145.7 271.1,-268.9 399.7,-427.4 422.6,-520.5 769.2,-1077.3 1030.3,-1654.7 252,-557.6 413.7,-1110.5 480.8,-1643.6 22.9,-182.1 34.3,-358.9 34.4,-529.7 0.1,-328.8 -42.2,-635.5 -126.5,-916.2 -132.8,-441.6 -364.4,-798.9 -688.4,-1062 -324,-262.98 -721.3,-416.26 -1180.8,-455.43 v 0 c -2,-0.16 -3.9,-0.33 -5.9,-0.49 -76.3,-6.36 -153.7,-9.51 -232.2,-9.51 -0.1,0 0,0 -0.1,0 v 0" /></g><g
         transform="scale(1.57361)"
         id="g118"><path
           id="path120"
           style="fill:#1d7cc0;fill-opacity:1;fill-rule:nonzero;stroke:none"
           d="m 14985.1,13455.9 c -0.1,0 -0.3,0 -0.5,0 -48.5,0 -97.8,2.1 -147.8,6.1 153.2,114.6 297.3,244.6 432.5,390.1 401.6,373 685.4,814.8 851.4,1325.3 45.3,86.1 86.2,173.4 122.9,261.8 37.5,-185.7 56.4,-366 56.4,-537.4 -0.1,-491.5 -156.4,-909.5 -480,-1172.2 v 0 c -0.9,-0.8 -2,-1.6 -2.8,-2.3 -228.4,-184.2 -514.7,-271.4 -832.1,-271.4 v 0 0" /></g><path
         id="path122"
         style="fill:#bababe;fill-opacity:1;fill-rule:nonzero;stroke:none"
         d="m 9760,13145 c 0,0 -95,45 40,120 135,75 745,205 800,175 55,-30 215,-50 150,-210 -65,-160 -660,-275 -990,-85" /><g
         transform="scale(1.04163)"
         id="g124"><path
           id="path126"
           style="fill:#cdd0d7;fill-opacity:1;fill-rule:nonzero;stroke:none"
           d="m 11199.2,11807.1 c 0,0 557.7,1517.2 571.3,1887.1 13.7,369.9 -850.6,2605.8 -850.6,2605.8 0,0 -486.3,-148.2 -484,-354.5 l 637.5,-2382.8 -617.5,-881.4 c 0,0 184.3,-713.9 743.3,-874.2" /></g><path
         id="path128"
         style="fill:#df8867;fill-opacity:1;fill-rule:nonzero;stroke:none"
         d="m 9395.21,14045.7 c 0,0 440.55,-665.8 469.12,-843.3 28.58,-177.5 -228.7,-450 -228.7,-450 0,0 896.37,-182.1 1089.67,78.7 193.3,260.9 246.9,371.8 246.9,371.8 0,0 -214.1,-62.5 -294.9,39.3 -80.8,101.9 -501.5,1105.6 -501.5,1105.6 l -780.59,-302.1" /><path
         id="path130"
         style="fill:#ee9e78;fill-opacity:1;fill-rule:nonzero;stroke:none"
         d="m 10651.1,14883.8 c 0,0 165.4,-479 194,-656.5 28.5,-177.5 -205.3,-577.9 -271.9,-660.1 -66.7,-82.2 -208.9,-112.1 -208.9,-112.1 0,0 -532.32,104.8 -641.87,193.7 -109.54,88.8 -417.16,537.9 -417.16,537.9 0,0 -387.1,586.2 -343.88,796.2 43.21,210.1 223.65,690.1 656.93,765.5 433.28,75.3 578.08,80.5 739.68,-218.5 71.1,-131.6 293.1,-646.1 293.1,-646.1" /><path
         id="path132"
         style="fill:#31141e;fill-opacity:1;fill-rule:nonzero;stroke:none"
         d="m 10378.8,15345.3 -229.5,-244.7 c 0,0 -33.6,-7.8 -48.5,32.4 -14.8,40.2 121.5,227.6 175.3,242.9 53.7,15.3 101.8,-3.5 102.7,-30.6" /><path
         id="path134"
         style="fill:#31141e;fill-opacity:1;fill-rule:nonzero;stroke:none"
         d="m 9402.11,14868 379.03,21.4 c 0,0 31.26,23.5 7.16,65.6 -24.12,42.1 -285.86,59.9 -338.17,24.3 -52.31,-35.5 -70.91,-90.9 -48.02,-111.3" /><path
         id="path136"
         style="fill:#2b203d;fill-opacity:1;fill-rule:nonzero;stroke:none"
         d="m 10418.3,14959.8 c 25.2,-55.6 77.7,-86 117.4,-68 39.6,18 51.4,77.6 26.2,133.1 -25.2,55.5 -77.7,85.9 -117.4,67.9 -39.6,-18 -51.4,-77.5 -26.2,-133" /><path
         id="path138"
         style="fill:#2b203d;fill-opacity:1;fill-rule:nonzero;stroke:none"
         d="m 9764.87,14683.2 c 25.19,-55.6 77.74,-86 117.39,-68 39.65,18 51.38,77.6 26.2,133.1 -25.18,55.5 -77.74,85.9 -117.38,67.9 -39.66,-18 -51.39,-77.5 -26.21,-133" /><path
         id="path140"
         style="fill:#ef7a6d;fill-opacity:1;fill-rule:nonzero;stroke:none"
         d="m 10296,14281.2 c 35.1,23.5 75.4,55.3 76,91.9 0.4,28.7 -23.4,53.9 -72.8,77.1 -85.9,40.3 -187.2,394.5 -219,527.6 l -30.1,-9 c 0.3,-1.2 29.5,-122.9 71.8,-249.3 57.6,-172.1 111.6,-271 160.3,-293.9 39.5,-18.5 59.3,-37.3 59,-55.8 -0.2,-18.1 -19.8,-39.5 -61.6,-67.6 l 16.4,-21" /><path
         id="path142"
         style="fill:#c0272d;fill-opacity:1;fill-rule:nonzero;stroke:none"
         d="m 10522.7,14193.6 -537.75,-226.7 c 0,0 -50.92,-40.4 80.85,-101.8 131.7,-61.4 420.2,104.1 420.2,104.1 0,0 103.2,116 36.7,224.4" /><path
         id="path144"
         style="fill:#ffffff;fill-opacity:1;fill-rule:nonzero;stroke:none"
         d="m 10519,14201.9 -534.05,-235 c 0,0 -54.69,-32.1 50.65,-35.3 105.4,-3.2 401.4,145.6 401.4,145.6 0,0 118.3,82.8 82,124.7" /><g
         transform="scale(1.00098)"
         id="g146"><path
           id="path148"
           style="fill:#3d1623;fill-opacity:1;fill-rule:nonzero;stroke:none"
           d="m 9176.35,14265.5 c 0,0 131.76,129 45.83,280.2 -85.92,151.4 -184.73,521.6 -161.21,584.1 23.51,62.7 915.4,346.1 1145.63,563 l 285.2,-476 -214,586.1 c 0,0 109.6,101.6 -56,199.5 -165.4,97.9 -411.68,297.6 -798.98,121.9 -387.3,-175.8 -855.5,-440 -943.04,-704.5 -87.54,-264.7 -274.02,-349.2 -274.02,-349.2 l 215.03,-92.7 c 0,0 317.67,-547.8 526.77,-703.7 l 228.79,-8.7" /></g><g
         transform="scale(1.00098)"
         id="g150"><path
           id="path152"
           style="fill:#31141e;fill-opacity:1;fill-rule:nonzero;stroke:none"
           d="m 8479.78,15419.8 c 87.54,264.5 555.74,528.7 943.04,704.5 387.3,175.7 633.58,-24 798.98,-121.9 165.6,-97.9 56,-199.5 56,-199.5 l 1.8,-4.4 c -29.2,-33.5 -52.2,-71.3 -68.8,-111.9 l -4.2,6.2 c -230.23,-216.9 -1122.12,-500.3 -1145.63,-563 -0.58,-1.5 -1.02,-3.4 -1.45,-5.3 -98.05,32.5 -208.11,30.7 -302.05,-11.9 -131.46,-59.6 -210.69,-177.2 -230.79,-307.4 -63.7,99.9 -105.89,172.7 -105.89,172.7 l -215.03,92.7 c 0,0 186.48,84.5 274.02,349.2" /></g><path
         id="path154"
         style="fill:#262727;fill-opacity:1;fill-rule:nonzero;stroke:none"
         d="m 12677.1,10210.5 c 0,0 97.7,-221.1 -90.2,-459.2 -187.9,-238.1 -516.6,-469.5 -723.2,-509 -206.6,-39.6 -875.7,-7.6 -974.6,138.3 l 6.9,-2.7 1781.1,832.6" /><path
         id="path156"
         style="fill:#212a4e;fill-opacity:1;fill-rule:nonzero;stroke:none"
         d="m 11640.9,9159.5 92.9,18 -56.8,294.1 -92.9,-17.9 56.8,-294.2" /><path
         id="path158"
         style="fill:#212a4e;fill-opacity:1;fill-rule:nonzero;stroke:none"
         d="m 12528.8,9615.4 63.4,70.3 -222.6,200.5 -63.3,-70.3 222.5,-200.5" /><path
         id="path160"
         style="fill:#212a4e;fill-opacity:1;fill-rule:nonzero;stroke:none"
         d="m 11288.5,9147.2 94.6,-2.8 9,299.4 -94.5,2.9 -9.1,-299.5" /><g
         transform="scale(1.19574)"
         id="g162"><path
           id="path164"
           style="fill:#643530;fill-opacity:1;fill-rule:nonzero;stroke:none"
           d="m 14562.6,7339.96 c 0,0 1008.9,140.25 1215,398.75 0,0 343.9,151.37 433.2,-58.46 89.2,-209.74 -24.2,-449.34 -131.3,-587.08 -107.2,-137.82 -863.5,-408.12 -863.5,-408.12 l -101.8,6.28 61.3,-91.83 -226,-123.44 -652.9,434.71 266,429.19" /></g><g
         transform="scale(1.11745)"
         id="g166"><path
           id="path168"
           style="fill:#3f1d1b;fill-opacity:1;fill-rule:nonzero;stroke:none"
           d="m 15717.2,7819.87 c 87.6,44.39 156.7,116.61 235.4,174.15 37.6,27.57 77,53.16 119,73.38 35.5,17.19 127,61.39 166.7,39.2 32,-17.9 -4,-42.42 -19,-57.54 -16.8,-17.1 -34.3,-33.56 -52.6,-49.13 -37,-31.32 -77.8,-58.98 -122.3,-78.66 -91,-40.27 -192.7,-17.54 -282.9,-56.83 -10.5,-4.56 -7.7,-22.46 3.2,-24.52 62.4,-12.08 121.4,-34.72 174.9,-69.27 30,-19.33 57.7,-41.97 82.6,-67.38 16.3,-16.65 74.9,-71.5 33.9,-77.94 -25.3,-3.94 -79.1,25.68 -101.7,35.52 -29.3,12.8 -57.7,27.21 -85.4,43.14 -60.9,34.99 -116.7,77.4 -167.7,125.73 -12.5,11.9 -31.6,-7.07 -19,-18.97 66.9,-63.36 142.2,-117.06 225.1,-157.6 38.5,-18.7 78.4,-35.34 119.3,-48.05 21.2,-6.62 54.7,-16.02 71.8,5.01 34.7,42.6 -71.3,127.35 -98,149.27 -66.3,54.23 -144.7,90.2 -228.8,106.4 1.1,-8.14 2.2,-16.37 3.3,-24.52 61.1,26.67 128.3,17.72 192.6,28.82 54.5,9.4 106,31.95 152.3,61.75 45.2,29.08 86,64.88 123.5,103.35 20,20.59 56.6,47.7 32.9,78.13 -26.9,34.54 -84,22.55 -119.7,13.78 -53,-13.06 -103.3,-36.42 -150,-64.52 -107.1,-64.52 -191.5,-162.96 -303,-219.52 -15.4,-7.87 -1.8,-31.05 13.6,-23.18" /></g><path
         id="path170"
         style="fill:#643530;fill-opacity:1;fill-rule:nonzero;stroke:none"
         d="m 10251.3,3305.4 c 0,0 212.2,-1199.4 530.1,-1434.3 0,0 196.1,-404.3 -50.6,-520.2 -246.8,-115.8 -538,9.1 -707.4,131 -169.41,122 -525.82,1013.8 -525.82,1013.8 l 3.01,121.8 -107.03,-77.2 -157.46,264.6 490.69,799.4 524.51,-298.9" /><path
         id="path172"
         style="fill:#3f1d1b;fill-opacity:1;fill-rule:nonzero;stroke:none"
         d="m 10218.2,3154.5 c 49.9,-90 126.4,-160.2 191,-239.3 37.3,-45.8 72.3,-94 100.1,-146.2 13.4,-25.2 25,-51.3 34.2,-78.3 7.7,-22.4 27.2,-71.2 17.8,-93.5 3,-13.4 -3.1,-19.1 -18.3,-17 -9.7,-7.5 -17.5,-7.2 -23.5,0.9 -10.8,4.7 -21.1,18.5 -29.9,26.7 -19.6,18.3 -38.6,37.3 -56.5,57.3 -36,40.3 -68.3,85 -90.9,134.3 -45.1,98.2 -25.4,209.9 -71.8,306.6 -5.3,11 -25.5,9 -27.4,-3.6 -10.9,-70.2 -33.6,-137.1 -70,-198.4 -20.3,-34.2 -44.3,-66.2 -71.8,-95 -17.6,-18.6 -76.9,-86.2 -86,-42 -5.4,26.1 21.5,78.3 30.9,103.3 14,37.3 30.4,73.7 49,108.9 36.6,69.5 81.5,133.6 133.4,192.5 12.7,14.5 -8.4,35.8 -21.2,21.3 -68.1,-77.4 -125,-163.5 -166.8,-257.8 -19.4,-43.8 -36.4,-88.9 -48.92,-135.1 -6.53,-24.1 -15.78,-61.6 8.02,-80.2 49,-38.2 139.2,84.1 162.6,114.8 58,76.2 95,165.3 109.7,259.7 -9.2,-1.2 -18.3,-2.4 -27.4,-3.6 32.3,-67.2 25.3,-142.3 40.2,-213.8 12.6,-60.5 39.9,-117.1 75.1,-167.6 34.4,-49.4 75.9,-93.4 120.4,-133.7 23.6,-21.2 55.8,-61.4 88.6,-34.3 37.8,31.2 22.3,94.6 11,134 -16.7,58.8 -44.8,114 -78.1,165 -76.4,116.9 -189.9,207.2 -257.6,329.3 -9.4,16.9 -35.3,1.8 -25.9,-15.2" /><path
         id="path174"
         style="fill:#212a4e;fill-opacity:1;fill-rule:nonzero;stroke:none"
         d="m 12784.8,9898.9 37.4,86.9 -275.1,118.5 -37.5,-86.8 275.2,-118.6" /><path
         id="path176"
         style="fill:#31141e;fill-opacity:1;fill-rule:nonzero;stroke:none"
         d="m 9104.22,14381.8 c 62.1,28.2 112.47,69.3 150.57,118.6 29.22,-124.2 -69.49,-221 -69.49,-221 l -229.01,8.7 c -22.49,16.7 -46.24,38.1 -70.71,62.7 74.22,-9.3 150.66,0.2 218.64,31" /><g
         transform="scale(1.10264)"
         id="g178"><path
           id="path180"
           style="fill:#212a48;fill-opacity:1;fill-rule:nonzero;stroke:none"
           d="m 11497,9260.01 c 0,0 2085.1,447.65 2387.9,364.49 302.7,-83.16 2158.4,-1527.69 2158.4,-1527.69 0,0 256.7,-424.89 -14.1,-609.08 -270.9,-184.1 -324,-175.31 -324,-175.31 l -2053.9,1106.34 c 0,0 -1349.1,-37.36 -1680.2,-189.63 -331,-152.36 -350.3,-1972.35 -522,-2478.77 -171.7,-506.33 -2024.94,-3243.75 -2024.94,-3243.75 0,0 -674.56,-182.38 -632.18,662.14 0,0 1007.19,1393.46 1106.32,2053.88 99.03,660.32 180.3,2197.17 95.31,2473.33 -85.06,276.15 -111.91,808.96 -111.91,808.96 l 1615.3,755.09" /></g><path
         id="path182"
         style="fill:#151e39;fill-opacity:1;fill-rule:nonzero;stroke:none"
         d="M 11847,5075.4 C 11438.8,4951.1 11027.7,4916 10613.8,4970.1 10249.9,4262.5 9694.43,3494 9694.43,3494 c -46.74,-931.2 697.07,-730.1 697.07,-730.1 0,0 869,1283.6 1526.2,2331.5 -23.4,-7 -47,-13.7 -70.7,-20" /><g
         transform="scale(1.10264)"
         id="g184"><path
           id="path186"
           style="fill:#151e39;fill-opacity:1;fill-rule:nonzero;stroke:none"
           d="m 16043.3,8096.81 c 0,0 -519.3,404.21 -1053.3,797.36 -38.6,-239.25 -121,-468.24 -247.4,-686.99 -48.9,-101.57 -104.6,-196.98 -166.9,-286.31 l 1129.5,-608.45 c 0,0 53.1,-8.79 324,175.31 270.8,184.19 14.1,609.08 14.1,609.08" /></g><path
         id="path188"
         style="fill:#ee9e78;fill-opacity:1;fill-rule:nonzero;stroke:none"
         d="m 9194.54,14430.8 c 0,0 -118.65,127.9 -215.3,-2.5 -96.66,-130.4 29.76,-332.7 134.12,-372 104.36,-39.2 298.72,-124.2 320.93,-96.8 22.2,27.4 31.38,83.5 31.38,83.5 l -271.13,387.8" /><path
         id="path190"
         style="fill:#d9dde9;fill-opacity:1;fill-rule:nonzero;stroke:none"
         d="m 10800.5,13288.6 -144.4,-514.8 -883.99,135.7 -391.24,-463.7 c -177.91,-210.9 -183.4,-517.7 -13.07,-734.7 306.35,-390.4 754.8,-972.9 848.2,-1154 88.9,-172.5 266.9,-599.1 390.8,-902.2 83.7,-204.7 290.6,-331.1 510.9,-312.3 276.4,23.6 640.2,76.6 859.1,195.4 180.5,97.9 362.4,233.8 505.5,351.3 171.7,140.8 236.8,374 163.5,583.5 -197.9,566.7 -603.2,1683.8 -839,2035.2 -320.7,477.8 -718.2,752.7 -718.2,752.7 l -288.1,27.9" /><path
         id="path192"
         style="fill:#cdd0d7;fill-opacity:1;fill-rule:nonzero;stroke:none"
         d="m 10216,10557.1 c -16,31 -42.4,73.8 -76.7,125.3 294.2,-119.8 596.9,-164 908.2,-132.3 336.2,-22.9 659.4,41.3 969.4,192.4 158.3,70.5 305.7,154.5 442.4,251.7 71.6,-195.1 135.8,-376.3 186.5,-521.3 73.4,-210 7.7,-443.2 -164.4,-584.4 -143,-117.3 -324.5,-252.8 -504.6,-350.5 -219.2,-119 -583.8,-171.9 -860.3,-195.5 -219.9,-18.8 -426.2,108.2 -509.7,312.5 -124,303.1 -301.9,729.6 -390.8,902.1" /><path
         id="path194"
         style="fill:#bababe;fill-opacity:1;fill-rule:nonzero;stroke:none"
         d="m 10663.2,12779.8 200.6,209.3 232.1,-18.2 -314.9,205.7 -117.8,-396.8" /><path
         id="path196"
         style="fill:#d9dde9;fill-opacity:1;fill-rule:nonzero;stroke:none"
         d="m 10622.1,12715.1 -153.8,224.5 -744.89,268.1 -73.41,-448.8 708.3,-302 263.8,258.2" /><path
         id="path198"
         style="fill:#d9dde9;fill-opacity:1;fill-rule:nonzero;stroke:none"
         d="m 10568.5,13443.9 187.4,-54.4 c 116.1,-103.1 340,-418.6 340,-418.6 l -268.6,139.9 -173.2,-332.7 c 0,0 134.1,410.5 -85.6,665.8" /><path
         id="path200"
         style="fill:#bababe;fill-opacity:1;fill-rule:nonzero;stroke:none"
         d="m 10272.1,12572.6 201,364.5 175.7,-163.7 -184.1,-12.3 -192.6,-188.5" /><path
         id="path202"
         style="fill:#cdd0d7;fill-opacity:1;fill-rule:nonzero;stroke:none"
         d="m 10191.9,11813.2 620.1,273.9 -38.2,86.6 -620.2,-273.9 38.3,-86.6" /><path
         id="path204"
         style="fill:#cdd0d7;fill-opacity:1;fill-rule:nonzero;stroke:none"
         d="m 12104.8,9278.7 281.1,162.5 c 26,15 35,48.6 19.9,74.7 l -79.4,137.4 c -15,26 -48.6,35 -74.7,20 l -281.1,-162.5 c -26,-15.1 -35,-48.7 -19.9,-74.7 l 79.4,-137.4 c 15.1,-26 48.7,-35 74.7,-20" /><path
         id="path206"
         style="fill:#262727;fill-opacity:1;fill-rule:nonzero;stroke:none"
         d="m 12107.1,9309.6 250.9,145 c 22.2,12.8 29.8,41.4 17,63.6 l -63.8,110.4 c -12.9,22.2 -41.5,29.9 -63.7,17.1 l -250.8,-145 c -22.2,-12.8 -29.9,-41.5 -17.1,-63.7 l 63.9,-110.4 c 12.8,-22.2 41.4,-29.9 63.6,-17" /><g
         id="g208"><g
           clip-path="url(#clipPath214)"
           id="g210"><path
             id="path216"
             style="fill:#f3bba0;fill-opacity:1;fill-rule:nonzero;stroke:none"
             d="m 10357.1,14676.9 c -97,0 -190.1,54.8 -234.4,148.3 -1.1,2.4 -2.2,4.7 -3.3,7.1 -7,23.8 -13.4,46.7 -19.2,67.8 -1.7,12 -2.5,24 -2.5,36 0,38.3 8.5,75.9 24.6,110.2 l 465,-228.9 c -25.1,-48.8 -65.9,-90.1 -119.4,-115.5 -35.8,-17 -73.6,-25 -110.8,-25" /><path
             id="path218"
             style="fill:#f4a199;fill-opacity:1;fill-rule:nonzero;stroke:none"
             d="m 10119.4,14832.3 c -9.6,22.1 -16,44.9 -19.2,67.8 5.8,-21.1 12.2,-44 19.2,-67.8" /><path
             id="path220"
             style="fill:#f3bba0;fill-opacity:1;fill-rule:nonzero;stroke:none"
             d="m 10608.8,14875 -56.8,28 c 12.9,12.4 20.6,30.8 22.6,51.9 l 41.6,-20.5 c -0.2,-20.1 -2.7,-40 -7.4,-59.4 m -195.1,96.1 -258.9,127.4 c 12.4,15.4 26.7,29.6 42.7,42.1 l 209.1,-103 c -3.4,-20.2 -1.3,-43.4 7.1,-66.5" /><path
             id="path222"
             style="fill:#6a6277;fill-opacity:1;fill-rule:nonzero;stroke:none"
             d="m 10552,14903 -138.3,68.1 c -8.4,23.1 -10.5,46.3 -7.1,66.5 l 168,-82.7 c -2,-21.1 -9.7,-39.5 -22.6,-51.9" /><path
             id="path224"
             style="fill:#d8eff9;fill-opacity:1;fill-rule:nonzero;stroke:none"
             d="m 10594.4,15040 -14.4,7.1 c -7.9,17.8 -16.1,36.6 -24.6,55.9 13.9,-16.7 26,-35.3 35.8,-55.9 1.1,-2.3 2.2,-4.7 3.2,-7.1" /><path
             id="path226"
             style="fill:#f3bba0;fill-opacity:1;fill-rule:nonzero;stroke:none"
             d="m 10580,15047.1 -53.3,26.2 c -15.1,13.4 -32.2,21.8 -48.9,24.1 l -183.5,90.3 c 20.7,5.2 41.7,7.7 62.5,7.7 75.7,0 149,-33.3 198.6,-92.4 8.5,-19.3 16.7,-38.1 24.6,-55.9" /><path
             id="path228"
             style="fill:#6a6277;fill-opacity:1;fill-rule:nonzero;stroke:none"
             d="m 10526.7,15073.3 -48.9,24.1 c 16.7,-2.3 33.8,-10.7 48.9,-24.1" /><path
             id="path230"
             style="fill:#e2f3fb;fill-opacity:1;fill-rule:nonzero;stroke:none"
             d="m 10614.1,14969.1 c -10,22.8 -21.5,49.3 -34.1,78 l 14.4,-7.1 c 10.1,-23.1 16.6,-47 19.7,-70.9" /><path
             id="path232"
             style="fill:#f5cbb7;fill-opacity:1;fill-rule:nonzero;stroke:none"
             d="m 10616.2,14934.4 -41.6,20.5 c 2.1,21.7 -1.9,46.2 -12.7,70 -8.9,19.6 -21.2,36.1 -35.2,48.4 l 53.3,-26.2 c 12.6,-28.7 24.1,-55.2 34.1,-78 1.4,-11 2.1,-22 2.1,-32.9 0,-0.6 0,-1.2 0,-1.8 m -209.6,103.2 -209.1,103 c 14.7,11.4 30.9,21.5 48.5,29.8 15.8,7.5 32,13.2 48.3,17.3 l 183.5,-90.3 c -3,0.4 -6,0.6 -8.9,0.6 -8.5,0 -16.7,-1.7 -24.4,-5.2 -20.6,-9.3 -33.6,-29.8 -37.9,-55.2" /><path
             id="path234"
             style="fill:#8d8897;fill-opacity:1;fill-rule:nonzero;stroke:none"
             d="m 10574.6,14954.9 -168,82.7 c 4.3,25.4 17.3,45.9 37.9,55.2 7.7,3.5 15.9,5.2 24.4,5.2 2.9,0 5.9,-0.2 8.9,-0.6 l 48.9,-24.1 c 14,-12.3 26.3,-28.8 35.2,-48.4 10.8,-23.8 14.8,-48.3 12.7,-70" /><path
             id="path236"
             style="fill:#f5cbb7;fill-opacity:1;fill-rule:nonzero;stroke:none"
             d="m 10587.3,14817.4 -465,228.9 c 8.7,18.5 19.6,36.1 32.5,52.2 l 258.9,-127.4 c 1.4,-3.8 2.9,-7.6 4.6,-11.3 20.3,-44.7 58.3,-73.2 93,-73.2 8.4,0 16.7,1.7 24.4,5.2 6.1,2.8 11.6,6.6 16.3,11.2 l 56.8,-28 c -4.8,-19.9 -12.1,-39.3 -21.5,-57.6" /><path
             id="path238"
             style="fill:#8d8897;fill-opacity:1;fill-rule:nonzero;stroke:none"
             d="m 10511.3,14886.6 c -34.7,0 -72.7,28.5 -93,73.2 -1.7,3.7 -3.2,7.5 -4.6,11.3 l 138.3,-68.1 c -4.7,-4.6 -10.2,-8.4 -16.3,-11.2 -7.7,-3.5 -16,-5.2 -24.4,-5.2" /></g></g><g
         id="g240"><g
           clip-path="url(#clipPath246)"
           id="g242"><path
             id="path248"
             style="fill:#f3bba0;fill-opacity:1;fill-rule:nonzero;stroke:none"
             d="m 9771.52,14399.5 c -97.03,0 -190.09,54.7 -234.4,148.2 -17,35.9 -25.04,73.7 -25.02,111 0.02,38.2 8.55,75.9 24.63,110.2 l 253.98,-125 c 19.77,-21.4 44.2,-33.9 67.19,-33.9 0.51,0 1.02,0 1.52,0 l 142.38,-70 c -25.17,-48.9 -65.98,-90.2 -119.47,-115.5 -35.85,-17 -73.61,-25 -110.81,-25" /><path
             id="path250"
             style="fill:#6a6277;fill-opacity:1;fill-rule:nonzero;stroke:none"
             d="m 9857.9,14610 c -22.99,0 -47.42,12.5 -67.19,33.9 l 68.71,-33.9 c -0.5,0 -1.01,0 -1.52,0" /><path
             id="path252"
             style="fill:#f3bba0;fill-opacity:1;fill-rule:nonzero;stroke:none"
             d="m 10023.2,14597.6 -108.43,53.4 c 6.94,17.2 8.81,38.4 5.05,60.5 l 110.78,-54.5 c -0.2,-20.1 -2.7,-40.1 -7.4,-59.4 m -271.11,133.4 -182.87,90.1 c 12.39,15.4 26.67,29.5 42.67,42 l 150.67,-74.2 c -8.67,-15.8 -12.35,-36.1 -10.47,-57.9" /><path
             id="path254"
             style="fill:#6a6277;fill-opacity:1;fill-rule:nonzero;stroke:none"
             d="m 9914.77,14651 -162.68,80 c -1.88,21.8 1.8,42.1 10.47,57.9 l 157.26,-77.4 c 3.76,-22.1 1.89,-43.3 -5.05,-60.5" /><path
             id="path256"
             style="fill:#f3bba0;fill-opacity:1;fill-rule:nonzero;stroke:none"
             d="m 10008.8,14762.6 -254.59,125.3 26.93,1.5 c 0,0 12.65,9.5 15.65,27.3 87.5,-8.7 168.4,-61.8 208.81,-147 1.1,-2.4 2.2,-4.8 3.2,-7.1" /><path
             id="path258"
             style="fill:#6e5a61;fill-opacity:1;fill-rule:nonzero;stroke:none"
             d="m 9754.21,14887.9 -45.47,22.4 c 20.7,5.1 41.66,7.7 62.44,7.7 8.58,0 17.13,-0.5 25.61,-1.3 -3,-17.8 -15.65,-27.3 -15.65,-27.3 l -26.93,-1.5" /><path
             id="path260"
             style="fill:#f5cbb7;fill-opacity:1;fill-rule:nonzero;stroke:none"
             d="m 10030.6,14657 -110.78,54.5 c -2.06,12.2 -5.82,24.6 -11.36,36.8 -20.27,44.7 -58.28,73.1 -93.02,73.1 -8.41,0 -16.63,-1.7 -24.36,-5.2 -12.27,-5.5 -21.87,-15.1 -28.52,-27.3 l -150.67,74.2 c 8.44,6.6 17.35,12.7 26.73,18.3 l 115.59,6.5 254.59,-125.3 c 14.8,-33.8 21.8,-69.1 21.8,-103.8 0,-0.6 0,-1.2 0,-1.8" /><path
             id="path262"
             style="fill:#908187;fill-opacity:1;fill-rule:nonzero;stroke:none"
             d="m 9638.62,14881.4 c 7,4.1 14.25,8 21.76,11.5 15.82,7.5 32,13.3 48.36,17.4 l 45.47,-22.4 -115.59,-6.5" /><path
             id="path264"
             style="fill:#8d8897;fill-opacity:1;fill-rule:nonzero;stroke:none"
             d="m 9919.82,14711.5 -157.26,77.4 c 6.65,12.2 16.25,21.8 28.52,27.3 7.73,3.5 15.95,5.2 24.36,5.2 34.74,0 72.75,-28.4 93.02,-73.1 5.54,-12.2 9.3,-24.6 11.36,-36.8" /><path
             id="path266"
             style="fill:#f5cbb7;fill-opacity:1;fill-rule:nonzero;stroke:none"
             d="m 10001.8,14540 -142.38,70 c 7.88,0.2 15.58,1.9 22.84,5.2 14.99,6.8 25.99,19.5 32.51,35.8 l 108.43,-53.4 c -4.8,-20 -12,-39.3 -21.4,-57.6 m -211.09,103.9 -253.98,125 c 8.69,18.5 19.57,36 32.49,52.2 l 182.87,-90.1 c 1.34,-15.5 5.53,-31.9 12.78,-47.8 6.86,-15.2 15.74,-28.4 25.84,-39.3" /><path
             id="path268"
             style="fill:#8d8897;fill-opacity:1;fill-rule:nonzero;stroke:none"
             d="m 9859.42,14610 -68.71,33.9 c -10.1,10.9 -18.98,24.1 -25.84,39.3 -7.25,15.9 -11.44,32.3 -12.78,47.8 l 162.68,-80 c -6.52,-16.3 -17.52,-29 -32.51,-35.8 -7.26,-3.3 -14.96,-5 -22.84,-5.2" /></g></g><path
         id="path270"
         style="fill:#402312;fill-opacity:1;fill-rule:nonzero;stroke:none"
         d="m 10122,14823.3 -13.5,-6.5 c 47.3,-99.9 146.8,-158.5 250.5,-158.5 39.8,0 80.2,8.6 118.5,26.8 99.9,47.4 158.5,146.8 158.5,250.5 0,39.8 -8.6,80.2 -26.8,118.5 -47.3,100 -146.8,158.5 -250.5,158.5 -39.8,0 -80.2,-8.6 -118.5,-26.7 -99.9,-47.4 -158.5,-146.9 -158.5,-250.6 0,-39.8 8.6,-80.2 26.8,-118.5 l 13.5,6.5 13.6,6.4 c -16.2,34.2 -23.9,70.1 -23.9,105.6 0,92.5 52.2,181.2 141.4,223.4 34.2,16.3 70.1,23.9 105.6,23.9 92.5,0 181.2,-52.2 223.4,-141.3 16.2,-34.2 23.9,-70.2 23.9,-105.7 0,-92.5 -52.2,-181.2 -141.4,-223.4 -34.2,-16.2 -70.1,-23.9 -105.6,-23.9 -92.5,0.1 -181.2,52.2 -223.4,141.4 l -13.6,-6.4" /><path
         id="path272"
         style="fill:#402312;fill-opacity:1;fill-rule:nonzero;stroke:none"
         d="m 10037.2,14713 109.3,51.8 -51.7,109.3 -109.36,-51.8 51.76,-109.3" /><path
         id="path274"
         style="fill:#402312;fill-opacity:1;fill-rule:nonzero;stroke:none"
         d="m 9496.43,14633.6 -109.31,-51.8 33.3,-70.2 c 0,0 81.36,9.8 126.98,-25.9 l -50.97,147.9" /><path
         id="path276"
         style="fill:#402312;fill-opacity:1;fill-rule:nonzero;stroke:none"
         d="m 10542.7,15129.3 85.8,40.7 33.3,-70.3 c 0,0 -44.1,-49.5 -40.3,-105.1 l -78.8,134.7" /><path
         id="path278"
         style="fill:#8b6339;fill-opacity:1;fill-rule:nonzero;stroke:none"
         d="m 9387.12,14581.8 -212.05,-36.7 40.28,-44.7 205.07,11.2 -33.3,70.2" /><path
         id="path280"
         style="fill:#402312;fill-opacity:1;fill-rule:nonzero;stroke:none"
         d="m 9526.23,14550.5 -13.56,-6.4 c 47.38,-99.9 146.85,-158.5 250.57,-158.5 39.76,0 80.18,8.6 118.45,26.8 99.96,47.3 158.51,146.8 158.51,250.5 0,39.8 -8.6,80.2 -26.7,118.5 -47.42,99.9 -146.89,158.5 -250.61,158.5 -39.76,0 -80.19,-8.6 -118.46,-26.8 -99.96,-47.3 -158.52,-146.8 -158.5,-250.5 0,-39.8 8.61,-80.2 26.74,-118.5 l 13.56,6.4 13.56,6.5 c -16.21,34.2 -23.86,70.1 -23.86,105.6 0.02,92.5 52.18,181.2 141.35,223.4 34.2,16.2 70.17,23.9 105.61,23.9 92.52,0 181.22,-52.2 223.45,-141.4 16.16,-34.2 23.86,-70.1 23.86,-105.6 0,-92.5 -52.18,-181.2 -141.35,-223.4 -34.21,-16.2 -70.17,-23.9 -105.61,-23.9 -92.52,0 -181.22,52.2 -223.45,141.4 l -13.56,-6.5" /><path
         id="path282"
         style="fill:#d9dde9;fill-opacity:1;fill-rule:nonzero;stroke:none"
         d="m 9664.51,11313.6 c 0,0 73.4,1682.1 -30.09,2053.6 -103.48,371.4 -1677.78,2462.3 -1677.78,2462.3 0,0 -480.53,-359.1 -412.95,-563.1 l 1440.42,-2250.2 -161.1,-894.7 c 0,0 235.98,-825.7 841.5,-807.9" /><g
         transform="scale(1.0809)"
         id="g284"><path
           id="path286"
           style="fill:#ee9e78;fill-opacity:1;fill-rule:nonzero;stroke:none"
           d="m 10105,15455.3 -51,178 c 0,0 -111.47,41.3 -174.56,116.5 -63.1,75.3 -274.77,205.6 -274.77,205.6 0,0 -22.48,141.4 73.27,119.1 95.66,-22.4 270.14,98.2 373.96,89 103.8,-9.1 193.3,136.5 323.6,111.1 130.3,-25.5 177.6,-82 173.6,-207.2 -4.1,-125.2 -88,-246.7 -88,-246.7 l 55.7,-234.1 c 14.8,-62.1 -18,-125.6 -77.1,-149.6 l -162.1,-65.8 c -71,-28.7 -151.5,10.4 -172.6,84.1" /></g><g
         transform="scale(1.39583)"
         id="g288"><path
           id="path290"
           style="fill:#212757;fill-opacity:1;fill-rule:nonzero;stroke:none"
           d="m 12128.9,16124.1 653.5,175.9 -463.7,-493.8 -3679.16,-2195.3 -189.71,318 3679.07,2195.2" /></g><g
         transform="scale(1.2913)"
         id="g292"><path
           id="path294"
           style="fill:#2f3a74;fill-opacity:1;fill-rule:nonzero;stroke:none"
           d="M 7780.35,14907.6 C 7038.77,14365.2 3620.11,11726.1 3620.11,11726.1 l 67.06,-112.4 35.48,-59.4 67.06,-112.5 c 0,0 3945.98,1755.4 4775.51,2150.4 617.59,294.2 1831.98,1258.1 2412.18,1731.5 186.5,152.2 233.3,418.2 109.9,624.9 v 0 l -35.5,59.5 c -123.4,206.7 -379.6,291.9 -602.2,200 -692.02,-285.8 -2117.09,-896.8 -2669.25,-1300.5" /></g><g
         transform="scale(1.2913)"
         id="g296"><path
           id="path298"
           style="fill:#212757;fill-opacity:1;fill-rule:nonzero;stroke:none"
           d="m 6940.89,14275.6 -65.7,-545.6 c -111.32,-434.5 -304.32,-824 -578.86,-1168.4 958.44,430 1908.24,858.9 2268.89,1030.6 617.59,294.2 1831.98,1258.1 2412.18,1731.5 186.5,152.2 233.3,418.2 109.9,624.9 l -35.5,59.5 c -123.4,206.7 -379.6,291.9 -602.2,200 -692.02,-285.8 -2117.09,-896.8 -2669.25,-1300.5 -167.09,-122.3 -470.19,-351 -839.46,-632" /></g><g
         transform="scale(1.29154)"
         id="g300"><path
           id="path302"
           style="fill:#f1f1f2;fill-opacity:1;fill-rule:nonzero;stroke:none"
           d="m 8448.62,14453.1 c 142.86,-241 250.64,-491.8 323.34,-752.4 658.52,380 1702.34,1211 2217.84,1632 178.1,145.5 222.9,399.6 105,597.2 l -54.5,91.2 c -117.9,197.6 -362.7,278.9 -575.4,191.2 -609.66,-251.5 -1819.69,-768 -2471.31,-1165.6 179.39,-169.1 331.15,-366.9 455.03,-593.6" /></g><g
         transform="scale(1.28083)"
         id="g304"><path
           id="path306"
           style="fill:#e6e7e8;fill-opacity:1;fill-rule:nonzero;stroke:none"
           d="m 10038.5,14638.4 c 19.4,460.7 121.1,905.8 305,1335.4 26.6,110.9 57.8,219.6 93.5,326.2 -201.8,-83.9 -450.41,-189.2 -715.79,-305.9 59.1,-613.8 -20.14,-1201.4 -237.97,-1762.8 182.15,128.5 370.7,267.5 555.26,407.1" /></g><path
         id="path308"
         style="fill:#212757;fill-opacity:1;fill-rule:nonzero;stroke:none"
         d="m 4800.45,14967.2 -2092.2,-1248.4 c 0,0 -319.63,-833.1 226.23,-1243.6 545.86,-410.6 1216.36,-165.5 1450.52,90.5 234.14,255.9 510.66,2241.9 510.66,2241.9 l -95.21,159.6" /><path
         id="path310"
         style="fill:#2c346b;fill-opacity:1;fill-rule:nonzero;stroke:none"
         d="M 4799.59,14968.6 2707.4,13720.3 c 0,0 -884.97,114.3 -987.03,789.7 -102.06,675.3 432.03,1149 768.48,1233.5 336.45,84.5 2215.53,-615.3 2215.53,-615.3 l 95.21,-159.6" /><g
         transform="scale(1.02413)"
         id="g312"><path
           id="path314"
           style="fill:#ee9e78;fill-opacity:1;fill-rule:nonzero;stroke:none"
           d="m 7771.88,15340.3 c 0,0 -158.21,220.8 -141.85,315.5 16.37,94.8 -116.38,270.7 -177.77,256.1 -61.39,-14.6 -359.57,-124.6 -457.21,-95.9 -97.65,28.6 -426.88,430.2 -426.88,430.2 0,0 -155.53,53.8 -129.2,-56.7 0,0 -96.23,-30.5 -45.54,-122.3 0,0 -39.76,-26.7 12.22,-123.9 0,0 -18.43,-67.9 53.04,-125.8 0,0 206.9,-360.2 302.8,-423.8 95.9,-63.7 582.39,-120.8 578.49,-104.4 -3.91,16.4 150.51,-413.9 150.51,-413.9 0,0 264.28,149.4 281.39,464.9" /></g></g></g></svg>