<svg id="visual" viewBox="0 0 1920 800" width="1920" height="800" xmlns="http://www.w3.org/2000/svg" xmlns:xlink="http://www.w3.org/1999/xlink" version="1.1"><rect x="0" y="0" width="1920" height="800" fill="#048A81"></rect><path d="M0 621L21.3 628C42.7 635 85.3 649 128 673.8C170.7 698.7 213.3 734.3 256 705C298.7 675.7 341.3 581.3 384 566.8C426.7 552.3 469.3 617.7 512 597.5C554.7 577.3 597.3 471.7 640 429.2C682.7 386.7 725.3 407.3 768 460.3C810.7 513.3 853.3 598.7 896 617.5C938.7 636.3 981.3 588.7 1024 532.3C1066.7 476 1109.3 411 1152 400.2C1194.7 389.3 1237.3 432.7 1280 448.3C1322.7 464 1365.3 452 1408 454.8C1450.7 457.7 1493.3 475.3 1536 502.7C1578.7 530 1621.3 567 1664 573C1706.7 579 1749.3 554 1792 555.3C1834.7 556.7 1877.3 584.3 1898.7 598.2L1920 612L1920 801L1898.7 801C1877.3 801 1834.7 801 1792 801C1749.3 801 1706.7 801 1664 801C1621.3 801 1578.7 801 1536 801C1493.3 801 1450.7 801 1408 801C1365.3 801 1322.7 801 1280 801C1237.3 801 1194.7 801 1152 801C1109.3 801 1066.7 801 1024 801C981.3 801 938.7 801 896 801C853.3 801 810.7 801 768 801C725.3 801 682.7 801 640 801C597.3 801 554.7 801 512 801C469.3 801 426.7 801 384 801C341.3 801 298.7 801 256 801C213.3 801 170.7 801 128 801C85.3 801 42.7 801 21.3 801L0 801Z" fill="#e0ca3c" stroke-linecap="round" stroke-linejoin="miter"></path></svg>